<?xml version="1.0" standalone="no"?>
<svg xmlns:xlink="http://www.w3.org/1999/xlink" id="wave" style="transform:rotate(0deg); transition: 0.3s" version="1.1"
    xmlns="http://www.w3.org/2000/svg">
    <defs>
        <linearGradient id="sw-gradient-0" x1="0" x2="0" y1="1" y2="0">
            <stop stop-color="rgba(108, 218, 238, 1)" offset="0%"/>
            <stop stop-color="rgba(16, 231, 220, 1)" offset="100%"/>
        </linearGradient>
    </defs>
    <path style="transform:translate(0, 0px); opacity:1" fill="url(#sw-gradient-0)" d="M0,245L16,245C32,245,64,245,96,253.2C128,261,160,278,192,236.8C224,196,256,98,288,106.2C320,114,352,229,384,236.8C416,245,448,147,480,147C512,147,544,245,576,245C608,245,640,147,672,147C704,147,736,245,768,277.7C800,310,832,278,864,236.8C896,196,928,147,960,106.2C992,65,1024,33,1056,73.5C1088,114,1120,229,1152,261.3C1184,294,1216,245,1248,187.8C1280,131,1312,65,1344,73.5C1376,82,1408,163,1440,228.7C1472,294,1504,343,1536,302.2C1568,261,1600,131,1632,114.3C1664,98,1696,196,1728,236.8C1760,278,1792,261,1824,220.5C1856,180,1888,114,1920,147C1952,180,1984,310,2016,334.8C2048,359,2080,278,2112,236.8C2144,196,2176,196,2208,196C2240,196,2272,196,2288,196L2304,196L2304,490L2288,490C2272,490,2240,490,2208,490C2176,490,2144,490,2112,490C2080,490,2048,490,2016,490C1984,490,1952,490,1920,490C1888,490,1856,490,1824,490C1792,490,1760,490,1728,490C1696,490,1664,490,1632,490C1600,490,1568,490,1536,490C1504,490,1472,490,1440,490C1408,490,1376,490,1344,490C1312,490,1280,490,1248,490C1216,490,1184,490,1152,490C1120,490,1088,490,1056,490C1024,490,992,490,960,490C928,490,896,490,864,490C832,490,800,490,768,490C736,490,704,490,672,490C640,490,608,490,576,490C544,490,512,490,480,490C448,490,416,490,384,490C352,490,320,490,288,490C256,490,224,490,192,490C160,490,128,490,96,490C64,490,32,490,16,490L0,490Z"/>
    <defs>
        <linearGradient id="sw-gradient-1" x1="0" x2="0" y1="1" y2="0">
            <stop stop-color="rgba(108, 218, 238, 1)" offset="0%"/>
            <stop stop-color="rgba(0, 116, 225, 1)" offset="100%"/>
        </linearGradient>
    </defs>
    <path style="transform:translate(0, 50px); opacity:0.9" fill="url(#sw-gradient-1)" d="M0,245L16,220.5C32,196,64,147,96,147C128,147,160,196,192,212.3C224,229,256,212,288,220.5C320,229,352,261,384,285.8C416,310,448,327,480,294C512,261,544,180,576,187.8C608,196,640,294,672,310.3C704,327,736,261,768,220.5C800,180,832,163,864,196C896,229,928,310,960,326.7C992,343,1024,294,1056,236.8C1088,180,1120,114,1152,114.3C1184,114,1216,180,1248,179.7C1280,180,1312,114,1344,138.8C1376,163,1408,278,1440,277.7C1472,278,1504,163,1536,138.8C1568,114,1600,180,1632,204.2C1664,229,1696,212,1728,196C1760,180,1792,163,1824,147C1856,131,1888,114,1920,147C1952,180,1984,261,2016,310.3C2048,359,2080,376,2112,351.2C2144,327,2176,261,2208,253.2C2240,245,2272,294,2288,318.5L2304,343L2304,490L2288,490C2272,490,2240,490,2208,490C2176,490,2144,490,2112,490C2080,490,2048,490,2016,490C1984,490,1952,490,1920,490C1888,490,1856,490,1824,490C1792,490,1760,490,1728,490C1696,490,1664,490,1632,490C1600,490,1568,490,1536,490C1504,490,1472,490,1440,490C1408,490,1376,490,1344,490C1312,490,1280,490,1248,490C1216,490,1184,490,1152,490C1120,490,1088,490,1056,490C1024,490,992,490,960,490C928,490,896,490,864,490C832,490,800,490,768,490C736,490,704,490,672,490C640,490,608,490,576,490C544,490,512,490,480,490C448,490,416,490,384,490C352,490,320,490,288,490C256,490,224,490,192,490C160,490,128,490,96,490C64,490,32,490,16,490L0,490Z"/>
</svg>